<?xml version="1.0" encoding="UTF-8" standalone="no"?>
<!-- Created with Inkscape (http://www.inkscape.org/) -->

<svg
   version="1.1"
   id="svg2"
   width="2730.6667"
   height="2730.6667"
   viewBox="0 0 2730.6667 2730.6667"
   sodipodi:docname="icon.svg"
   xml:space="preserve"
   inkscape:version="1.3.2 (091e20e, 2023-11-25, custom)"
   xmlns:inkscape="http://www.inkscape.org/namespaces/inkscape"
   xmlns:sodipodi="http://sodipodi.sourceforge.net/DTD/sodipodi-0.dtd"
   xmlns:xlink="http://www.w3.org/1999/xlink"
   xmlns="http://www.w3.org/2000/svg"
   xmlns:svg="http://www.w3.org/2000/svg"><defs
     id="defs6"><linearGradient
       id="linearGradient8"
       inkscape:collect="always"><stop
         style="stop-color:#3498db;stop-opacity:1;"
         offset="0"
         id="stop8" /><stop
         style="stop-color:#2980b9;stop-opacity:1;"
         offset="1"
         id="stop9" /></linearGradient><linearGradient
       id="linearGradient3236"
       inkscape:swatch="solid"><stop
         style="stop-color:#000000;stop-opacity:1;"
         offset="0"
         id="stop3234" /></linearGradient><clipPath
       clipPathUnits="userSpaceOnUse"
       id="clipPath18"><path
         d="M 0,0 H 2048 V 2048 H 0 Z"
         id="path16" /></clipPath><linearGradient
       x1="0"
       y1="0"
       x2="1"
       y2="0"
       gradientUnits="userSpaceOnUse"
       gradientTransform="matrix(2047.9999,-2047.9999,-2047.9999,-2047.9999,-62.790699,2110.7908)"
       spreadMethod="pad"
       id="linearGradient30"><stop
         style="stop-opacity:1;stop-color:#95a5a6"
         offset="0"
         id="stop24" /><stop
         style="stop-opacity:1;stop-color:#7f8c8d"
         offset="0.4739314"
         id="stop26" /><stop
         style="stop-opacity:1;stop-color:#7f8c8d"
         offset="1"
         id="stop28" /></linearGradient><clipPath
       clipPathUnits="userSpaceOnUse"
       id="clipPath40"><path
         d="M 0,2048 H 2048 V 0 H 0 Z"
         id="path38" /></clipPath><clipPath
       clipPathUnits="userSpaceOnUse"
       id="clipPath50"><path
         d="M 0,2048 H 2048 V 0 H 0 Z"
         id="path48" /></clipPath><clipPath
       clipPathUnits="userSpaceOnUse"
       id="clipPath62"><path
         d="m 616.349,1792 c -21.508,0 -42.575,-1.888 -63.047,-5.501 v 0 -942.592 H 679.659 V 256 H 806.016 V 843.907 H 932.372 V 1792 Z"
         id="path60" /></clipPath><linearGradient
       x1="0"
       y1="0"
       x2="1"
       y2="0"
       gradientUnits="userSpaceOnUse"
       gradientTransform="matrix(0,-1536,-1536,0,742.83716,1792)"
       spreadMethod="pad"
       id="linearGradient76"><stop
         style="stop-opacity:1;stop-color:#464d55"
         offset="0"
         id="stop68" /><stop
         style="stop-opacity:1;stop-color:#464d55"
         offset="0.00000012"
         id="stop70" /><stop
         style="stop-opacity:1;stop-color:#25292e"
         offset="0.47393147"
         id="stop72" /><stop
         style="stop-opacity:1;stop-color:#25292e"
         offset="1"
         id="stop74" /></linearGradient><clipPath
       clipPathUnits="userSpaceOnUse"
       id="clipPath86"><path
         d="M 553.302,1792 V 843.907 H 679.658 V 256 h 126.358 v 587.907 h 126.356 v 941.195 c -22.796,4.52 -46.364,6.898 -70.488,6.898 v 0 z"
         id="path84" /></clipPath><linearGradient
       x1="0"
       y1="0"
       x2="1"
       y2="0"
       gradientUnits="userSpaceOnUse"
       gradientTransform="matrix(0,-1536,-1536,0,742.83716,1792)"
       spreadMethod="pad"
       id="linearGradient100"><stop
         style="stop-opacity:1;stop-color:#464d55"
         offset="0"
         id="stop92" /><stop
         style="stop-opacity:1;stop-color:#464d55"
         offset="0.00000012"
         id="stop94" /><stop
         style="stop-opacity:1;stop-color:#25292e"
         offset="0.47393147"
         id="stop96" /><stop
         style="stop-opacity:1;stop-color:#25292e"
         offset="1"
         id="stop98" /></linearGradient><clipPath
       clipPathUnits="userSpaceOnUse"
       id="clipPath110"><path
         d="M 1123.07,1792 V 843.907 h 126.356 V 256 h 126.357 v 587.907 h 126.357 v 941.195 c -22.797,4.52 -46.365,6.898 -70.488,6.898 v 0 z"
         id="path108" /></clipPath><linearGradient
       x1="0"
       y1="0"
       x2="1"
       y2="0"
       gradientUnits="userSpaceOnUse"
       gradientTransform="matrix(0,-1536,-1536,0,1312.6047,1792)"
       spreadMethod="pad"
       id="linearGradient124"><stop
         style="stop-opacity:1;stop-color:#464d55"
         offset="0"
         id="stop116" /><stop
         style="stop-opacity:1;stop-color:#464d55"
         offset="0.00000012"
         id="stop118" /><stop
         style="stop-opacity:1;stop-color:#25292e"
         offset="0.47393147"
         id="stop120" /><stop
         style="stop-opacity:1;stop-color:#25292e"
         offset="1"
         id="stop122" /></linearGradient><clipPath
       clipPathUnits="userSpaceOnUse"
       id="clipPath134"><path
         d="m 1186.116,1792 c -21.508,0 -42.574,-1.888 -63.046,-5.501 v 0 -942.592 h 126.357 V 256 h 126.356 V 843.907 H 1502.14 V 1792 Z"
         id="path132" /></clipPath><linearGradient
       x1="0"
       y1="0"
       x2="1"
       y2="0"
       gradientUnits="userSpaceOnUse"
       gradientTransform="matrix(0,-1536,-1536,0,1312.6047,1792)"
       spreadMethod="pad"
       id="linearGradient148"><stop
         style="stop-opacity:1;stop-color:#25292e"
         offset="0"
         id="stop146" /><stop
         style="stop-opacity:1;stop-color:#25292e"
         offset="0.52606853"
         id="stop144" /><stop
         style="stop-opacity:1;stop-color:#464d55"
         offset="0.99999988"
         id="stop142" /><stop
         style="stop-opacity:1;stop-color:#464d55"
         offset="1"
         id="stop140" /></linearGradient><linearGradient
       inkscape:collect="always"
       xlink:href="#linearGradient8"
       id="linearGradient9"
       x1="519.62238"
       y1="1140.6551"
       x2="1447.5321"
       y2="1140.6551"
       gradientUnits="userSpaceOnUse"
       gradientTransform="rotate(-42.291717,969.96105,971.27027)" /></defs><sodipodi:namedview
     id="namedview4"
     pagecolor="#ffffff"
     bordercolor="#000000"
     borderopacity="0.25"
     inkscape:showpageshadow="2"
     inkscape:pageopacity="0.0"
     inkscape:pagecheckerboard="0"
     inkscape:deskcolor="#d1d1d1"
     showgrid="false"
     inkscape:zoom="0.2236278"
     inkscape:cx="666.28569"
     inkscape:cy="1339.279"
     inkscape:window-width="1920"
     inkscape:window-height="1111"
     inkscape:window-x="-9"
     inkscape:window-y="-9"
     inkscape:window-maximized="1"
     inkscape:current-layer="g10"><inkscape:page
       x="0"
       y="0"
       id="page8"
       width="2730.6667"
       height="2730.6667"
       inkscape:export-filename="icon-small.png"
       inkscape:export-xdpi="4.5"
       inkscape:export-ydpi="4.5"
       margin="0"
       bleed="0" /></sodipodi:namedview><g
     id="g10"
     inkscape:groupmode="layer"
     inkscape:label="Page 1"
     transform="matrix(1.3333333,0,0,-1.3333333,0,2730.6667)"><g
       id="g12"><g
         id="g14"
         clip-path="url(#clipPath18)"><g
           id="g20"><g
             id="g22"><path
               d="M 0,0 H 2048 V 2048 H 0 Z"
               style="fill:url(#linearGradient30);stroke:none"
               id="path32" /></g></g></g></g><g
       id="g34"><g
         id="g36"
         clip-path="url(#clipPath40)"><path
           d="M 2048,0 H 0 v 2048 h 2048 z"
           style="fill:none;stroke:#1d1d1b;stroke-width:1;stroke-linecap:butt;stroke-linejoin:miter;stroke-miterlimit:10;stroke-dasharray:none;stroke-opacity:1"
           id="path42" /></g></g><g
       id="g44"
       style="fill-opacity:1;fill:#2c3e50"><g
         id="g46"
         clip-path="url(#clipPath50)"
         style="fill-opacity:1;fill:#2c3e50"><g
           id="g52"
           transform="translate(1498.8047,256)"
           style="fill-opacity:1;fill:#2c3e50"><path
             d="m 0,0 h -949.609 c -161.928,0 -293.196,131.268 -293.196,293.195 v 949.61 c 0,161.927 131.268,293.195 293.196,293.195 H 0 c 161.928,0 293.195,-131.268 293.195,-293.195 V 293.195 C 293.195,131.268 161.928,0 0,0"
             style="fill-opacity:1;fill-rule:nonzero;stroke:none;fill:#2c3e50"
             id="path54" /></g></g></g><path
       d="m 775.33073,670.66026 -71.20422,65.62899 c -19.58685,18.05322 -27.33896,45.01646 -19.9537,70.60028 5.83955,19.97645 13.64955,46.02129 23.07757,75.90214 l -234.25495,-9.54468 c -19.04153,-0.77586 -37.16954,8.68738 -47.36691,24.90553 -10.19737,16.21791 -10.80592,36.5969 -1.73133,53.37841 l 108.25785,200.68667 c 26.80798,49.6622 77.6312,81.4516 133.87008,83.7431 l 182.22282,7.4247 c 4.95299,9.0729 9.93316,17.4817 14.92231,25.6692 170.43925,274.8553 440.20215,294.7179 602.59975,271.6162 25.8733,-3.6032 46.6215,-22.9397 52.5391,-48.4251 36.2457,-160.2013 38.1651,-430.4735 -221.6918,-622.6995 -7.533,-5.6296 -15.7301,-11.28631 -24.3701,-16.9612 l 7.4246,-182.22278 c 2.2914,-56.23896 -25.2489,-109.70127 -72.5746,-140.23924 L 1015.883,405.89722 c -15.98756,-10.40978 -36.34854,-11.46117 -53.34234,-2.61697 -16.99397,8.84413 -27.89164,25.92081 -28.6765,45.18372 l -9.67092,237.3546 c -30.77729,-12.12121 -57.65011,-22.08737 -77.97086,-29.56871 -24.4734,-8.98131 -51.76559,-3.21809 -71.11304,14.40138 z m 483.92557,500.75924 a 88.63875,88.63875 0 1 1 -7.2171,177.1305 88.63875,88.63875 0 1 1 7.2171,-177.1305 z"
       id="path1"
       style="fill:url(#linearGradient9);stroke-width:2.21596" /></g></svg>
